<svg width="35" height="7" viewBox="0 0 35 7" fill="none" xmlns="http://www.w3.org/2000/svg">
<path d="M34 0V1.25C34 1.4075 33.925 1.555 33.8 1.65L33.5 1.875L33.2 1.65C33.075 1.555 33 1.4075 33 1.25V0H32V1.25C32 1.7225 32.2225 2.1675 32.6 2.45L32.6675 2.5L33 2.74975V5H34V2.74975L34.3325 2.5L34.4 2.45C34.7778 2.1675 35 1.7225 35 1.25V0H34Z" fill="#00D7E4"/>
<path fill-rule="evenodd" clip-rule="evenodd" d="M31 4V3C31 2.44775 30.5523 2 30 2H28V7H29V5H29.25L30 6V7H31V6L30.2301 4.97341C30.6714 4.86948 31 4.47308 31 4ZM30 3H29V4H30V3Z" fill="#00D7E4"/>
<path d="M24 1V4C24 4.55225 24.4477 5 25 5H26C26.5523 5 27 4.55225 27 4V1C27 0.44775 26.5523 0 26 0H25C24.4477 0 24 0.44775 24 1ZM26 4H25V1H26V4Z" fill="#00D7E4"/>
<path d="M23 2H20V3H21V7H22V3H23V2Z" fill="#00D7E4"/>
<path d="M16 0V5H17V1H18V5H19V1C19 0.44775 18.5523 0 18 0H16Z" fill="#00D7E4"/>
<path d="M15 2V1H13H12V6H15V5H13V4H14.5V3H13V2H15Z" fill="#00D7E4"/>
<path d="M11 0H10V3.043C10 3.1755 9.94725 3.30275 9.8535 3.3965L9.5 3.75L9.1465 3.3965C9.05275 3.30275 9 3.1755 9 3.043V0H8V2.81325C8 3.40675 8.26375 3.96975 8.71975 4.34975L9.5 5L10.2803 4.34975C10.7363 3.9695 11 3.40675 11 2.81325V0Z" fill="#00D7E4"/>
<path d="M4 1V6H5V2H6V6H7V2C7 1.44775 6.55225 1 6 1H4Z" fill="#00D7E4"/>
<path d="M3 1V0H0V1H1V4H0V5H3V4H2V1H3Z" fill="#00D7E4"/>
</svg>
